<?xml version="1.0" standalone="no"?>
<!DOCTYPE svg PUBLIC "-//W3C//DTD SVG 20010904//EN"
 "http://www.w3.org/TR/2001/REC-SVG-20010904/DTD/svg10.dtd">
<svg version="1.0" xmlns="http://www.w3.org/2000/svg"
 width="238.000000pt" height="250.000000pt" viewBox="0 0 238.000000 250.000000"
 preserveAspectRatio="xMidYMid meet">

<g transform="translate(0.000000,250.000000) scale(0.100000,-0.100000)"
fill="#000000" stroke="none">
<path d="M954 2160 c-82 -11 -193 -51 -254 -90 -76 -49 -170 -155 -216 -245
-63 -123 -104 -267 -104 -369 0 -37 -6 -47 -81 -122 l-81 -81 110 -62 c103
-57 113 -65 148 -123 81 -132 225 -236 391 -279 43 -11 130 -24 193 -27 l115
-7 17 -50 c9 -28 18 -81 20 -119 3 -76 0 -81 -65 -91 -49 -8 -38 -25 17 -25
67 0 81 17 78 91 -1 34 -9 91 -17 126 -8 35 -15 66 -15 69 0 2 14 4 30 4 23 0
30 -5 30 -18 0 -11 14 -39 31 -63 16 -24 42 -61 56 -82 l26 -38 -21 -38 c-26
-45 -27 -51 -8 -51 16 0 66 73 66 96 0 9 -16 33 -36 52 -20 19 -45 49 -55 66
-22 35 -25 85 -6 90 6 2 46 13 87 26 267 80 509 294 646 570 43 87 64 181 45
204 -11 13 -21 11 -78 -20 -35 -18 -72 -34 -82 -34 -10 0 -24 15 -35 38 -10
20 -43 82 -73 137 -171 304 -559 510 -879 465z m287 -40 c179 -45 380 -171
496 -313 53 -64 117 -183 107 -199 -4 -7 -3 -8 4 -4 7 4 24 -22 46 -69 l35
-75 28 12 c15 7 40 20 55 30 33 22 55 24 34 2 -9 -8 -16 -24 -16 -35 0 -11 -4
-17 -10 -14 -11 7 -2 -22 14 -45 6 -8 0 -6 -13 5 -23 19 -24 19 -18 1 5 -12 1
-23 -10 -32 -10 -7 -13 -14 -7 -14 7 0 15 -7 18 -16 5 -14 4 -15 -8 -5 -19 16
-30 9 -46 -29 -10 -25 -10 -33 0 -43 10 -9 11 -8 6 8 -7 24 7 49 24 43 9 -3 8
-8 -4 -20 -9 -9 -12 -18 -7 -20 5 -2 0 -14 -11 -28 -13 -15 -19 -18 -15 -8 7
20 -8 34 -17 16 -3 -7 -3 -2 0 12 5 22 3 21 -15 -8 -12 -18 -27 -35 -34 -38
-8 -3 -14 -11 -14 -19 0 -20 4 -19 32 10 13 15 26 22 29 16 4 -5 -3 -12 -14
-16 -18 -6 -25 -21 -21 -51 1 -6 -6 -18 -15 -25 -15 -12 -16 -11 -11 11 4 14
4 19 1 13 -10 -22 -26 -14 -19 10 6 19 3 18 -18 -8 -22 -26 -24 -32 -11 -46 8
-8 14 -20 14 -25 0 -5 -9 2 -20 16 -19 25 -19 25 -34 5 -17 -24 -2 -49 26 -42
10 3 16 1 12 -4 -3 -5 -14 -9 -24 -9 -13 0 -17 -5 -14 -14 3 -8 0 -17 -7 -22
-8 -4 -10 -3 -5 4 4 7 3 12 -1 12 -5 0 -13 -10 -18 -22 -7 -16 -18 -22 -34
-20 -20 2 -22 0 -11 -13 8 -9 8 -15 2 -15 -6 0 -14 9 -17 20 -8 25 -17 25 -32
1 -10 -15 -9 -22 1 -30 7 -6 16 -8 19 -4 4 3 7 4 7 1 0 -11 -76 -55 -88 -50
-10 3 -7 8 7 19 12 8 19 19 16 24 -3 5 2 6 12 2 15 -5 16 -3 6 7 -11 11 -17
10 -35 -7 -38 -33 -117 -67 -173 -73 -5 0 -2 -5 8 -11 14 -8 24 -6 44 6 23 16
27 16 41 1 11 -10 12 -16 4 -16 -7 0 -12 5 -12 10 0 6 -5 10 -11 10 -6 0 -9
-7 -6 -14 4 -10 1 -13 -8 -10 -8 3 -22 -1 -30 -10 -9 -9 -24 -16 -33 -15 -14
0 -13 2 3 9 19 8 19 9 -2 9 -12 1 -23 5 -25 9 -1 5 -35 3 -75 -4 -106 -18
-189 -16 -315 6 -131 24 -122 22 -172 43 -21 9 -40 17 -42 17 -10 0 -113 66
-137 88 -15 14 -27 20 -27 14 0 -7 -5 -12 -11 -12 -6 0 -8 7 -5 16 6 15 -56
108 -66 98 -3 -2 -8 9 -11 26 -6 27 -27 43 -27 20 0 -5 5 -10 11 -10 6 0 8 -9
4 -20 -4 -13 0 -31 10 -46 9 -14 14 -28 12 -31 -3 -3 -12 8 -21 24 -17 33 -46
61 -46 45 0 -6 4 -13 9 -17 13 -7 41 -65 33 -65 -4 0 -17 18 -30 40 l-23 40
21 28 c51 69 31 179 -40 226 -39 26 -40 28 -40 84 0 124 62 301 144 416 104
145 244 226 426 245 93 10 163 5 261 -19z m811 -652 c-7 -7 -10 -5 -7 8 5 29
6 30 12 16 3 -8 1 -18 -5 -24z m-2 -39 c0 -6 -4 -7 -10 -4 -5 3 -10 11 -10 16
0 6 5 7 10 4 6 -3 10 -11 10 -16z m-1667 -68 c-17 -16 -43 -37 -57 -46 -14
-10 -23 -22 -19 -28 4 -6 1 -7 -7 -2 -9 6 2 21 41 56 58 52 92 68 42 20z m44
-77 c-3 -3 -12 -4 -19 -1 -8 3 -5 6 6 6 11 1 17 -2 13 -5z m-84 -41 c-7 -2
-19 -2 -25 0 -7 3 -2 5 12 5 14 0 19 -2 13 -5z m1577 -38 c-7 -9 -15 -13 -19
-10 -3 3 1 10 9 15 21 14 24 12 10 -5z m-70 -59 c0 -3 -4 -8 -10 -11 -5 -3
-10 -1 -10 4 0 6 5 11 10 11 6 0 10 -2 10 -4z m-1280 -61 c0 -5 -5 -3 -10 5
-5 8 -10 20 -10 25 0 6 5 3 10 -5 5 -8 10 -19 10 -25z m25 -25 c3 -5 2 -10 -4
-10 -5 0 -13 5 -16 10 -3 6 -2 10 4 10 5 0 13 -4 16 -10z m5 -35 c0 -12 -29
-3 -34 10 -4 13 -2 14 14 5 11 -6 20 -13 20 -15z m6 -19 c14 4 24 2 24 -5 0
-6 -7 -11 -15 -11 -25 0 -17 -15 9 -16 17 -1 23 2 19 12 -4 10 0 12 11 8 9 -3
13 -10 10 -15 -3 -5 1 -9 9 -9 8 0 20 -7 27 -15 7 -8 16 -13 20 -10 11 7 46
-22 37 -31 -4 -5 -12 -3 -16 4 -4 7 -12 12 -17 10 -5 -1 -21 6 -36 16 -17 11
-35 15 -45 11 -15 -5 -12 -9 16 -21 19 -8 32 -17 29 -19 -9 -10 -64 25 -100
64 -36 37 -55 70 -22 37 10 -10 24 -14 40 -10z m142 -105 c10 -6 8 -10 -8 -14
-30 -8 -57 2 -38 14 17 11 29 11 46 0z m58 -6 c-4 -11 3 -15 27 -16 18 -1 41
-2 51 -3 11 -1 21 -6 23 -13 7 -21 -95 -5 -119 19 -16 16 -17 20 -5 15 9 -3
17 -2 17 3 0 6 3 10 6 10 3 0 4 -7 0 -15z m764 5 c0 -5 -7 -7 -15 -4 -8 4 -15
8 -15 10 0 2 7 4 15 4 8 0 15 -4 15 -10z m-784 -35 c4 -9 19 -15 40 -15 19 0
34 -5 34 -11 0 -6 -8 -8 -17 -6 -10 3 -31 8 -46 11 -15 4 -25 11 -22 16 3 5
-5 11 -17 13 l-23 4 23 2 c12 0 25 -6 28 -14z m171 -11 c-3 -3 -12 -4 -19 -1
-8 3 -5 6 6 6 11 1 17 -2 13 -5z m221 -21 c-10 -2 -28 -2 -40 0 -13 2 -5 4 17
4 22 1 32 -1 23 -4z m152 -2 c0 -5 6 -11 13 -14 6 -2 4 -3 -5 -2 -10 2 -18 -1
-18 -6 0 -5 -13 -9 -30 -9 -16 0 -30 4 -30 10 0 5 7 7 15 4 11 -5 13 -2 9 10
-5 12 0 16 20 16 14 0 26 -4 26 -9z m67 -7 c-3 -3 -12 -4 -19 -1 -8 3 -5 6 6
6 11 1 17 -2 13 -5z m-328 -20 c-41 -15 -74 -17 -44 -3 14 6 4 8 -35 5 -38 -4
-46 -3 -25 3 17 4 54 8 84 7 l53 0 -33 -12z m69 -9 c-3 -3 -9 2 -12 12 -6 14
-5 15 5 6 7 -7 10 -15 7 -18z m72 14 c0 7 5 9 11 5 8 -4 7 -9 -2 -15 -22 -14
-39 -10 -39 7 0 14 3 14 15 4 11 -9 15 -9 15 -1z m-93 -15 c-3 -3 -12 -4 -19
-1 -8 3 -5 6 6 6 11 1 17 -2 13 -5z"/>
<path d="M998 2025 c-96 -19 -182 -68 -258 -145 -170 -171 -199 -437 -69 -634
126 -189 356 -277 571 -217 115 31 198 90 277 194 173 229 113 564 -129 726
-113 75 -260 104 -392 76z m307 -59 c313 -152 376 -559 123 -792 -195 -180
-487 -173 -674 15 -252 254 -150 680 192 801 49 17 78 20 169 17 104 -2 114
-4 190 -41z"/>
<path d="M861 1334 c-24 -31 -25 -37 -10 -67 16 -29 28 -37 62 -37 58 0 86 65
47 108 -29 31 -73 29 -99 -4z m34 -14 c-5 -8 -11 -8 -17 -2 -6 6 -7 16 -3 22
5 8 11 8 17 2 6 -6 7 -16 3 -22z"/>
<path d="M1738 1076 c-10 -7 -18 -16 -18 -20 0 -11 21 -6 36 8 26 27 13 36
-18 12z"/>
<path d="M1697 1043 c-4 -3 -7 -11 -7 -17 0 -6 5 -5 12 2 6 6 9 14 7 17 -3 3
-9 2 -12 -2z"/>
<path d="M1716 1024 c-4 -10 -1 -14 6 -12 15 5 23 28 10 28 -5 0 -13 -7 -16
-16z"/>
<path d="M1619 939 l-24 -20 28 17 c15 9 27 18 27 20 0 8 -8 4 -31 -17z"/>
<path d="M615 960 c3 -5 8 -10 11 -10 2 0 4 5 4 10 0 6 -5 10 -11 10 -5 0 -7
-4 -4 -10z"/>
</g>
</svg>
